<svg xmlns="http://www.w3.org/2000/svg" viewBox="0 0 24 24" role="img" aria-hidden="true">
  <path fill="#FA243C" d="M17.318 2.002c-.172.969-.543 1.88-1.102 2.671-.716 1.033-1.668 1.902-2.776 2.547a7.348 7.348 0 0 1-2.12.805 7.814 7.814 0 0 1-2.04.224c-.04 4.44-.02 8.88-.02 13.32 0 .78-.1 1.56-.31 2.31-.46 1.58-1.38 2.97-2.64 4.01-1.02.83-2.22 1.44-3.53 1.79-.74.21-1.5.32-2.26.32-1.67 0-3.3-.54-4.66-1.56-1.59-1.21-2.61-2.95-2.85-4.9-.26-2.05.47-4.13 1.95-5.61 1.22-1.22 2.85-1.9 4.53-1.9.56 0 1.12.08 1.66.23.04-2.58.02-5.16 0-7.74 1.62-.22 3.18-.8 4.56-1.7 1.84-1.15 3.32-2.82 4.27-4.78.14-.27.26-.55.37-.84 1.15.05 2.28.29 3.35.71 1.04.44 1.98 1.06 2.77 1.82.77.74 1.39 1.62 1.83 2.59z"/>
</svg>
